<svg width="1439" height="250" viewBox="0 0 1439 250" fill="none" xmlns="http://www.w3.org/2000/svg">
<g opacity="0.302479">
<path fill-rule="evenodd" clip-rule="evenodd" d="M-216.542 315.602C-216.542 315.602 -79.5082 155.799 68.2243 135.182C215.957 114.565 257.073 230.749 398.24 211.048C539.407 191.347 516.346 72.6436 657.513 52.9429C798.679 33.2422 839.796 149.426 959.623 132.703C1079.45 115.981 1023.08 -15.4919 1224.98 -43.6684C1426.88 -71.845 1388.05 72.9139 1537.42 52.0678" fill="#34495E"/>
<path d="M-216.542 315.602C-216.542 315.602 -79.5082 155.799 68.2243 135.182C215.957 114.565 257.073 230.749 398.24 211.048C539.407 191.347 516.346 72.6436 657.513 52.9429C798.679 33.2422 839.796 149.426 959.623 132.703C1079.45 115.981 1023.08 -15.4919 1224.98 -43.6684C1426.88 -71.845 1388.05 72.9139 1537.42 52.0678" stroke="white"/>
</g>
<g opacity="0.302479">
<path fill-rule="evenodd" clip-rule="evenodd" d="M-286.216 200.911C-286.216 200.911 -149.183 41.1079 -1.45005 20.4909C146.282 -0.126113 187.399 116.058 328.566 96.3569C469.732 76.6562 446.672 -42.0474 587.838 -61.7481C729.005 -81.4487 770.122 34.735 889.949 18.0123C1009.78 1.28961 953.406 -130.183 1155.31 -158.359C1357.21 -186.536 1318.37 -41.777 1467.75 -62.6231" fill="#34495E"/>
<path d="M-286.216 200.911C-286.216 200.911 -149.183 41.1079 -1.45005 20.4909C146.282 -0.126112 187.399 116.058 328.566 96.3569C469.732 76.6562 446.672 -42.0474 587.838 -61.7481C729.005 -81.4488 770.122 34.735 889.949 18.0123C1009.78 1.28961 953.406 -130.183 1155.31 -158.359C1357.21 -186.536 1318.37 -41.777 1467.75 -62.6231" stroke="white"/>
</g>
<g opacity="0.302479">
<path fill-rule="evenodd" clip-rule="evenodd" d="M-165.379 444.91C-165.379 444.91 -28.3449 285.107 119.388 264.49C267.12 243.873 308.237 360.057 449.403 340.356C590.57 320.655 567.509 201.952 708.676 182.251C849.843 162.55 890.959 278.734 1010.79 262.011C1130.61 245.289 1074.24 113.816 1276.14 85.6397C1478.05 57.4631 1439.21 202.222 1588.58 181.376" fill="#34495E"/>
<path d="M-165.379 444.91C-165.379 444.91 -28.3449 285.107 119.388 264.49C267.12 243.873 308.237 360.057 449.403 340.356C590.57 320.655 567.509 201.952 708.676 182.251C849.843 162.55 890.959 278.734 1010.79 262.011C1130.61 245.289 1074.24 113.816 1276.14 85.6397C1478.05 57.4631 1439.21 202.222 1588.58 181.376" stroke="white"/>
</g>
<g opacity="0.302479">
<path fill-rule="evenodd" clip-rule="evenodd" d="M-121.227 583.176C-121.227 583.176 15.8073 423.373 163.54 402.756C311.272 382.139 352.389 498.323 493.555 478.622C634.722 458.922 611.662 340.218 752.828 320.517C893.995 300.817 935.112 417 1054.94 400.278C1174.77 383.555 1118.4 252.083 1320.3 223.906C1522.2 195.729 1483.36 340.488 1632.74 319.642" fill="#34495E"/>
<path d="M-121.227 583.176C-121.227 583.176 15.8073 423.373 163.54 402.756C311.272 382.139 352.389 498.323 493.556 478.622C634.722 458.922 611.662 340.218 752.828 320.517C893.995 300.817 935.111 417 1054.94 400.278C1174.77 383.555 1118.4 252.083 1320.3 223.906C1522.2 195.729 1483.36 340.488 1632.74 319.642" stroke="white"/>
</g>
</svg>
