<svg width="34" height="32" viewBox="0 0 34 32" fill="none" xmlns="http://www.w3.org/2000/svg">
<path d="M17 10.6666C18.5584 10.6666 19.8334 9.46665 19.8334 7.99998C19.8334 6.53331 18.5584 5.33331 17 5.33331C15.4417 5.33331 14.1667 6.53331 14.1667 7.99998C14.1667 9.46665 15.4417 10.6666 17 10.6666ZM17 13.3333C15.4417 13.3333 14.1667 14.5333 14.1667 16C14.1667 17.4666 15.4417 18.6666 17 18.6666C18.5584 18.6666 19.8334 17.4666 19.8334 16C19.8334 14.5333 18.5584 13.3333 17 13.3333ZM17 21.3333C15.4417 21.3333 14.1667 22.5333 14.1667 24C14.1667 25.4666 15.4417 26.6666 17 26.6666C18.5584 26.6666 19.8334 25.4666 19.8334 24C19.8334 22.5333 18.5584 21.3333 17 21.3333Z" fill="#34495E"/>
</svg>
