<svg width="1439" height="1118" viewBox="0 0 1439 1118" fill="none" xmlns="http://www.w3.org/2000/svg">
<g filter="url(#filter0_d)">
<path d="M335.409 132.357C517.702 152.861 676.288 202.259 836.305 225.285C996.161 248.62 1151.86 205.275 1298.12 241.569C1443.84 277.971 1580.5 394.212 1627.47 522.598C1674.67 651.493 1632.56 792.733 1645.17 967.286C1657.63 1142.15 1725.19 1350.52 1636.02 1414.86C1547.39 1479.09 1266.43 1320.09 1066 1325.91C865.185 1331.53 709.313 1422.77 527.27 1423.25C345.066 1424.03 137.234 1333.93 -10.6586 1192.55C-158.935 1050.97 -210.975 936.853 -246.984 744.571C-282.832 551.981 -266.673 360.6 -158.961 240.26C-51.0276 120.428 153.661 111.745 335.409 132.357Z" fill="url(#paint0_linear)"/>
</g>
<defs>
<filter id="filter0_d" x="-547" y="-373" width="2610.31" height="2330.96" filterUnits="userSpaceOnUse" color-interpolation-filters="sRGB">
<feFlood flood-opacity="0" result="BackgroundImageFix"/>
<feColorMatrix in="SourceAlpha" type="matrix" values="0 0 0 0 0 0 0 0 0 0 0 0 0 0 0 0 0 0 127 0"/>
<feOffset dy="4"/>
<feGaussianBlur stdDeviation="2"/>
<feColorMatrix type="matrix" values="0 0 0 0 0 0 0 0 0 0 0 0 0 0 0 0 0 0 0.25 0"/>
<feBlend mode="normal" in2="BackgroundImageFix" result="effect1_dropShadow"/>
<feBlend mode="normal" in="SourceGraphic" in2="effect1_dropShadow" result="shape"/>
</filter>
<linearGradient id="paint0_linear" x1="-81.023" y1="-698.466" x2="1566.98" y2="1519.53" gradientUnits="userSpaceOnUse">
<stop stop-color="#FAC405"/>
<stop offset="1" stop-color="#F42408"/>
</linearGradient>
</defs>
</svg>
