<svg width="1060" height="733" viewBox="0 0 1060 733" fill="none" xmlns="http://www.w3.org/2000/svg">
<path d="M998.955 -567.431C1080.08 -486.726 1110.46 -380.328 1178.69 -307.094C1246.65 -233.776 1352.11 -193.781 1405.41 -119.592C1458.36 -45.5627 1459.23 62.9046 1406.98 142.237C1354.54 221.897 1249.04 272.666 1151.77 360.578C1054.23 448.574 964.977 573.958 881.097 569.839C797.56 565.881 719.736 432.581 613.684 357.331C507.555 281.836 373.542 264.553 280.076 193.92C186.344 123.371 133.502 -0.36671 141.822 -125.162C150.065 -250.202 219.735 -376.383 315.572 -481.831C411.677 -587.362 533.683 -672.076 660.335 -687.373C786.797 -702.341 918.172 -647.976 998.955 -567.431Z" fill="url(#paint0_linear)"/>
<defs>
<linearGradient id="paint0_linear" x1="229" y1="-747" x2="913" y2="641" gradientUnits="userSpaceOnUse">
<stop stop-color="#FAC405"/>
<stop offset="1" stop-color="#F42408" stop-opacity="0.96"/>
</linearGradient>
</defs>
</svg>
